<mxfile host="app.diagrams.net" modified="2023-05-08T14:34:40.312Z" agent="Mozilla/5.0 (Windows NT 10.0; Win64; x64) AppleWebKit/537.36 (KHTML, like Gecko) Chrome/112.0.0.0 Safari/537.36" etag="1Jo098Q9fdaCx6hxzpd2" version="21.2.9" type="device">
  <diagram name="Page-1" id="GcSjLYVJun45zZB_SUr3">
    <mxGraphModel dx="4026" dy="2720" grid="1" gridSize="10" guides="1" tooltips="1" connect="1" arrows="1" fold="1" page="1" pageScale="1" pageWidth="850" pageHeight="1100" math="0" shadow="0">
      <root>
        <mxCell id="0" />
        <mxCell id="1" parent="0" />
        <mxCell id="1UL17R5PPc6tgj92Qz5R-5" value="&lt;p style=&quot;margin:0px;margin-top:4px;text-align:center;&quot;&gt;&lt;b&gt;User&lt;/b&gt;&lt;/p&gt;&lt;hr size=&quot;1&quot;&gt;&lt;p style=&quot;margin:0px;margin-left:4px;&quot;&gt;+ int choice&lt;/p&gt;&lt;p style=&quot;margin:0px;margin-left:4px;&quot;&gt;&lt;br&gt;&lt;/p&gt;&lt;hr size=&quot;1&quot;&gt;&lt;p style=&quot;margin:0px;margin-left:4px;&quot;&gt;+ void isTeacher_Student();&lt;/p&gt;&lt;p style=&quot;margin:0px;margin-left:4px;&quot;&gt;+&amp;nbsp; void Log_Sign_in();&lt;/p&gt;&lt;p style=&quot;margin:0px;margin-left:4px;&quot;&gt;+ void Teacher_menu();&lt;/p&gt;&lt;p style=&quot;margin:0px;margin-left:4px;&quot;&gt;+ void Student_menu();&lt;/p&gt;" style="verticalAlign=top;align=left;overflow=fill;fontSize=12;fontFamily=Helvetica;html=1;whiteSpace=wrap;fillColor=#FFE599;" vertex="1" parent="1">
          <mxGeometry x="940" y="150" width="160" height="180" as="geometry" />
        </mxCell>
        <mxCell id="1UL17R5PPc6tgj92Qz5R-6" value="&lt;p style=&quot;margin:0px;margin-top:4px;text-align:center;&quot;&gt;&lt;b&gt;Student_Data&lt;/b&gt;&lt;/p&gt;&lt;hr size=&quot;1&quot;&gt;&lt;p style=&quot;margin:0px;margin-left:4px;&quot;&gt;+&amp;nbsp;&amp;nbsp;string *student_name;&lt;/p&gt;&lt;p style=&quot;margin:0px;margin-left:4px;&quot;&gt;+ string *student_rollNumber;&lt;/p&gt;&lt;p style=&quot;margin:0px;margin-left:4px;&quot;&gt;+ string **student_registered_courses;&lt;/p&gt;&lt;p style=&quot;margin:0px;margin-left:4px;&quot;&gt;+ Password P;&lt;/p&gt;&lt;p style=&quot;margin:0px;margin-left:4px;&quot;&gt;+ int **marks&lt;/p&gt;&lt;p style=&quot;margin:0px;margin-left:4px;&quot;&gt;&lt;br&gt;&lt;/p&gt;&lt;hr size=&quot;1&quot;&gt;&lt;p style=&quot;margin:0px;margin-left:4px;&quot;&gt;+ Student_Data()&lt;/p&gt;&lt;p style=&quot;margin:0px;margin-left:4px;&quot;&gt;+ string *colSeparate(string *&amp;amp;filedata, int colNum. int maxRow, char delim = &#39;,&#39; )&lt;/p&gt;&lt;p style=&quot;margin:0px;margin-left:4px;&quot;&gt;+ void separateStudentName(string *&amp;amp;filedata)&lt;/p&gt;&amp;nbsp;+ void separateStudentRollNumber(string *&amp;amp;filedata)&lt;br&gt;&amp;nbsp;+ void separateStudentCourse(string *&amp;amp;filedata)&lt;br&gt;&amp;nbsp;+ void display_Student_Names()&lt;br&gt;&amp;nbsp;+ void display_Student_RollNumber()&lt;br&gt;&amp;nbsp;+ void display_Student_Courses()&lt;br&gt;&amp;nbsp;+ int findRollNumber(string id)&lt;br&gt;&amp;nbsp;+ bool RollNumberExists(string id)&lt;br&gt;&amp;nbsp;+ void display_Student(int index)&lt;br&gt;&amp;nbsp;+ void setPassword_student(int index)&lt;br&gt;&amp;nbsp;+ void display_Student_Password()&lt;br&gt;&amp;nbsp;+ int get_Student_Password_index(string str)&lt;br&gt;&amp;nbsp;&lt;br&gt;&lt;p style=&quot;margin:0px;margin-left:4px;&quot;&gt;&amp;nbsp;&lt;/p&gt;&lt;p style=&quot;margin:0px;margin-left:4px;&quot;&gt;&lt;br&gt;&lt;/p&gt;" style="verticalAlign=top;align=left;overflow=fill;fontSize=12;fontFamily=Helvetica;html=1;whiteSpace=wrap;fillColor=#FFE599;" vertex="1" parent="1">
          <mxGeometry x="-170" y="330" width="450" height="360" as="geometry" />
        </mxCell>
        <mxCell id="1UL17R5PPc6tgj92Qz5R-9" value="&lt;p style=&quot;margin:0px;margin-top:4px;text-align:center;&quot;&gt;&lt;b&gt;Sutdent&lt;/b&gt;&lt;/p&gt;&lt;hr size=&quot;1&quot;&gt;&lt;p style=&quot;margin:0px;margin-left:4px;&quot;&gt;+ Student_Data s;&lt;/p&gt;&lt;p style=&quot;margin:0px;margin-left:4px;&quot;&gt;+ string *fileData;&lt;/p&gt;&lt;p style=&quot;margin:0px;margin-left:4px;&quot;&gt;+ string ID;&lt;/p&gt;&lt;p style=&quot;margin:0px;margin-left:4px;&quot;&gt;+ string password;&lt;/p&gt;&lt;p style=&quot;margin:0px;margin-left:4px;&quot;&gt;+ int index;&lt;/p&gt;&lt;p style=&quot;margin:0px;margin-left:4px;&quot;&gt;+ Quiz Q&lt;/p&gt;&lt;hr size=&quot;1&quot;&gt;&lt;p style=&quot;margin:0px;margin-left:4px;&quot;&gt;+ Student()&lt;/p&gt;&lt;p style=&quot;margin:0px;margin-left:4px;&quot;&gt;+ bool readFileData()&lt;/p&gt;&lt;p style=&quot;margin:0px;margin-left:4px;&quot;&gt;+ bool student_SignIn()&lt;/p&gt;&lt;p style=&quot;margin:0px;margin-left:4px;&quot;&gt;+ void getStudentData()&lt;/p&gt;&lt;p style=&quot;margin:0px;margin-left:4px;&quot;&gt;+ void display_Student_Password()&lt;/p&gt;&lt;p style=&quot;margin:0px;margin-left:4px;&quot;&gt;+ void FindStudent()&lt;/p&gt;&lt;p style=&quot;margin:0px;margin-left:4px;&quot;&gt;+ bool Student_Login()&lt;/p&gt;&lt;p style=&quot;margin:0px;margin-left:4px;&quot;&gt;+ void attempt_Quiz()&lt;/p&gt;&lt;p style=&quot;margin:0px;margin-left:4px;&quot;&gt;&lt;span style=&quot;background-color: initial;&quot;&gt;+ void Quiz_marks()&lt;/span&gt;&lt;br&gt;&lt;/p&gt;" style="verticalAlign=top;align=left;overflow=fill;fontSize=12;fontFamily=Helvetica;html=1;whiteSpace=wrap;fillColor=#FFE599;" vertex="1" parent="1">
          <mxGeometry x="460" y="110" width="220" height="300" as="geometry" />
        </mxCell>
        <mxCell id="1UL17R5PPc6tgj92Qz5R-10" value="&lt;p style=&quot;margin:0px;margin-top:4px;text-align:center;&quot;&gt;&lt;b&gt;Password&lt;/b&gt;&lt;/p&gt;&lt;hr size=&quot;1&quot;&gt;&lt;p style=&quot;margin:0px;margin-left:4px;&quot;&gt;+ int max;&lt;/p&gt;&lt;p style=&quot;margin:0px;margin-left:4px;&quot;&gt;+ string *password;&lt;/p&gt;&lt;hr size=&quot;1&quot;&gt;&lt;p style=&quot;margin:0px;margin-left:4px;&quot;&gt;+ Password()&lt;/p&gt;&lt;p style=&quot;margin:0px;margin-left:4px;&quot;&gt;+ Password(int m)&lt;/p&gt;&lt;p style=&quot;margin:0px;margin-left:4px;&quot;&gt;+ void set_Password()&lt;/p&gt;&lt;p style=&quot;margin:0px;margin-left:4px;&quot;&gt;+ bool Check_Password_Conditions(string str)&lt;/p&gt;&lt;p style=&quot;margin:0px;margin-left:4px;&quot;&gt;+ string hide_Password(string password)&lt;/p&gt;&lt;p style=&quot;margin:0px;margin-left:4px;&quot;&gt;+ void display_Password(int index)&lt;/p&gt;&lt;p style=&quot;margin:0px;margin-left:4px;&quot;&gt;+ int get_password_index(string str)&lt;/p&gt;" style="verticalAlign=top;align=left;overflow=fill;fontSize=12;fontFamily=Helvetica;html=1;whiteSpace=wrap;fillColor=#FFE599;" vertex="1" parent="1">
          <mxGeometry x="870" y="-210" width="280" height="200" as="geometry" />
        </mxCell>
        <mxCell id="1UL17R5PPc6tgj92Qz5R-11" value="&lt;p style=&quot;margin:0px;margin-top:4px;text-align:center;&quot;&gt;&lt;b&gt;Questions&lt;/b&gt;&lt;/p&gt;&lt;hr size=&quot;1&quot;&gt;&lt;p style=&quot;margin:0px;margin-left:4px;&quot;&gt;+ string question;&lt;/p&gt;&lt;p style=&quot;margin:0px;margin-left:4px;&quot;&gt;&lt;br&gt;&lt;/p&gt;&lt;hr size=&quot;1&quot;&gt;&lt;p style=&quot;margin:0px;margin-left:4px;&quot;&gt;+ Questions()&lt;/p&gt;&lt;p style=&quot;margin:0px;margin-left:4px;&quot;&gt;+ void display_Q()&lt;/p&gt;&lt;p style=&quot;margin:0px;margin-left:4px;&quot;&gt;+ void set_Q()&lt;/p&gt;&lt;p style=&quot;margin:0px;margin-left:4px;&quot;&gt;+ Questions get_Q(&lt;span style=&quot;background-color: initial;&quot;&gt;)&lt;/span&gt;&lt;/p&gt;&lt;p style=&quot;margin:0px;margin-left:4px;&quot;&gt;&lt;span style=&quot;background-color: initial;&quot;&gt;+ void display_Quiz_Qs()&lt;/span&gt;&lt;/p&gt;&lt;p style=&quot;margin:0px;margin-left:4px;&quot;&gt;&lt;br&gt;&lt;/p&gt;" style="verticalAlign=top;align=left;overflow=fill;fontSize=12;fontFamily=Helvetica;html=1;whiteSpace=wrap;fillColor=#FFE599;" vertex="1" parent="1">
          <mxGeometry x="1230" y="1020" width="150" height="190" as="geometry" />
        </mxCell>
        <mxCell id="1UL17R5PPc6tgj92Qz5R-12" value="&lt;p style=&quot;margin:0px;margin-top:4px;text-align:center;&quot;&gt;&lt;b&gt;True_False&lt;/b&gt;&lt;/p&gt;&lt;hr size=&quot;1&quot;&gt;&lt;p style=&quot;margin:0px;margin-left:4px;&quot;&gt;+ char ans&lt;/p&gt;&lt;hr size=&quot;1&quot;&gt;&lt;p style=&quot;margin:0px;margin-left:4px;&quot;&gt;+ True_False()&lt;/p&gt;&lt;p style=&quot;margin:0px;margin-left:4px;&quot;&gt;+ void set_Q()&lt;/p&gt;&lt;p style=&quot;margin:0px;margin-left:4px;&quot;&gt;+ void display_Quiz_Qs()&lt;/p&gt;&lt;p style=&quot;margin:0px;margin-left:4px;&quot;&gt;+ bool Mark()&lt;/p&gt;" style="verticalAlign=top;align=left;overflow=fill;fontSize=12;fontFamily=Helvetica;html=1;whiteSpace=wrap;fillColor=#FFE599;" vertex="1" parent="1">
          <mxGeometry x="1000" y="1320" width="160" height="160" as="geometry" />
        </mxCell>
        <mxCell id="1UL17R5PPc6tgj92Qz5R-13" value="&lt;p style=&quot;margin:0px;margin-top:4px;text-align:center;&quot;&gt;&lt;b&gt;Subjective&lt;/b&gt;&lt;/p&gt;&lt;hr size=&quot;1&quot;&gt;&lt;p style=&quot;margin:0px;margin-left:4px;&quot;&gt;+ string ans&lt;/p&gt;&lt;hr size=&quot;1&quot;&gt;&lt;p style=&quot;margin:0px;margin-left:4px;&quot;&gt;+ Subjective()&lt;/p&gt;&lt;p style=&quot;border-color: var(--border-color); margin: 0px 0px 0px 4px;&quot;&gt;+ void set_Q()&lt;/p&gt;&lt;p style=&quot;border-color: var(--border-color); margin: 0px 0px 0px 4px;&quot;&gt;+ void display_Quiz_Qs()&lt;/p&gt;&lt;p style=&quot;margin:0px;margin-left:4px;&quot;&gt;+ int Mark()&lt;/p&gt;" style="verticalAlign=top;align=left;overflow=fill;fontSize=12;fontFamily=Helvetica;html=1;whiteSpace=wrap;fillColor=#FFE599;" vertex="1" parent="1">
          <mxGeometry x="1223.75" y="1320" width="162.5" height="160" as="geometry" />
        </mxCell>
        <mxCell id="1UL17R5PPc6tgj92Qz5R-14" value="&lt;p style=&quot;margin:0px;margin-top:4px;text-align:center;&quot;&gt;&lt;b&gt;MCQ&lt;/b&gt;&lt;/p&gt;&lt;hr size=&quot;1&quot;&gt;&lt;p style=&quot;margin:0px;margin-left:4px;&quot;&gt;+ string option[4]&lt;/p&gt;&lt;p style=&quot;margin:0px;margin-left:4px;&quot;&gt;+ int ans&lt;/p&gt;&lt;hr size=&quot;1&quot;&gt;&lt;p style=&quot;margin:0px;margin-left:4px;&quot;&gt;+ MCQ()&lt;/p&gt;&lt;p style=&quot;margin:0px;margin-left:4px;&quot;&gt;+ bool Mark()&lt;/p&gt;&lt;p style=&quot;border-color: var(--border-color); margin: 0px 0px 0px 4px;&quot;&gt;+ void set_Q()&lt;/p&gt;&lt;p style=&quot;border-color: var(--border-color); margin: 0px 0px 0px 4px;&quot;&gt;+ void display_Quiz_Qs()&lt;/p&gt;" style="verticalAlign=top;align=left;overflow=fill;fontSize=12;fontFamily=Helvetica;html=1;whiteSpace=wrap;fillColor=#FFE599;" vertex="1" parent="1">
          <mxGeometry x="1520" y="1320" width="160" height="160" as="geometry" />
        </mxCell>
        <mxCell id="1UL17R5PPc6tgj92Qz5R-15" value="&lt;p style=&quot;margin:0px;margin-top:4px;text-align:center;&quot;&gt;&lt;b&gt;Topics&lt;/b&gt;&lt;/p&gt;&lt;hr size=&quot;1&quot;&gt;&lt;p style=&quot;margin:0px;margin-left:4px;&quot;&gt;+ Questions *questions&lt;/p&gt;&lt;p style=&quot;margin:0px;margin-left:4px;&quot;&gt;+ int total_Q&lt;/p&gt;&lt;p style=&quot;margin:0px;margin-left:4px;&quot;&gt;+string name&lt;/p&gt;&lt;hr size=&quot;1&quot;&gt;&lt;p style=&quot;margin:0px;margin-left:4px;&quot;&gt;+ Topics()&lt;/p&gt;&lt;p style=&quot;margin:0px;margin-left:4px;&quot;&gt;+ void Add_Q()&lt;/p&gt;&lt;p style=&quot;margin:0px;margin-left:4px;&quot;&gt;+ void display_All_Q()&lt;/p&gt;&lt;p style=&quot;margin:0px;margin-left:4px;&quot;&gt;+ void remove_Q()&lt;/p&gt;&lt;p style=&quot;margin:0px;margin-left:4px;&quot;&gt;+ void leftShift(int index)&lt;/p&gt;&lt;p style=&quot;margin:0px;margin-left:4px;&quot;&gt;+ Questions getRandomQuestion()&lt;/p&gt;&lt;p style=&quot;margin:0px;margin-left:4px;&quot;&gt;+ Questions getQuestion()&lt;/p&gt;&lt;p style=&quot;margin:0px;margin-left:4px;&quot;&gt;+ void set_Topic_Name()&lt;/p&gt;&lt;p style=&quot;margin:0px;margin-left:4px;&quot;&gt;+ void display_Topic_Name()&lt;/p&gt;&lt;p style=&quot;margin:0px;margin-left:4px;&quot;&gt;&lt;br&gt;&lt;/p&gt;" style="verticalAlign=top;align=left;overflow=fill;fontSize=12;fontFamily=Helvetica;html=1;whiteSpace=wrap;fillColor=#FFE599;" vertex="1" parent="1">
          <mxGeometry x="1730" y="940" width="245" height="230" as="geometry" />
        </mxCell>
        <mxCell id="1UL17R5PPc6tgj92Qz5R-16" value="&lt;p style=&quot;margin:0px;margin-top:4px;text-align:center;&quot;&gt;&lt;b&gt;Courses&lt;/b&gt;&lt;/p&gt;&lt;hr size=&quot;1&quot;&gt;&lt;p style=&quot;margin:0px;margin-left:4px;&quot;&gt;+ Topics *topics&lt;/p&gt;&lt;p style=&quot;margin:0px;margin-left:4px;&quot;&gt;+ int total_T&lt;/p&gt;&lt;p style=&quot;margin:0px;margin-left:4px;&quot;&gt;+ string course_name&lt;/p&gt;&lt;hr size=&quot;1&quot;&gt;&lt;p style=&quot;margin:0px;margin-left:4px;&quot;&gt;+ Courses()&lt;/p&gt;&lt;p style=&quot;margin:0px;margin-left:4px;&quot;&gt;+ void Add_T()&lt;/p&gt;&lt;p style=&quot;margin:0px;margin-left:4px;&quot;&gt;+ void remove_T()&lt;/p&gt;&lt;p style=&quot;margin:0px;margin-left:4px;&quot;&gt;+ void leftShift(int index)&lt;/p&gt;&lt;p style=&quot;margin:0px;margin-left:4px;&quot;&gt;+ void display_All_Topic_Qs()&lt;/p&gt;&lt;p style=&quot;margin:0px;margin-left:4px;&quot;&gt;+ void display_Topic_Qs()&lt;/p&gt;&lt;p style=&quot;margin:0px;margin-left:4px;&quot;&gt;+ void display_Topics()&lt;/p&gt;&lt;p style=&quot;margin:0px;margin-left:4px;&quot;&gt;+ void Add_Q_to_Topic()&lt;/p&gt;&lt;p style=&quot;margin:0px;margin-left:4px;&quot;&gt;+ Questions get_Question()&lt;/p&gt;&lt;p style=&quot;margin:0px;margin-left:4px;&quot;&gt;+ Questions get_Random_Question()&lt;/p&gt;&lt;p style=&quot;margin:0px;margin-left:4px;&quot;&gt;&lt;br&gt;&lt;/p&gt;" style="verticalAlign=top;align=left;overflow=fill;fontSize=12;fontFamily=Helvetica;html=1;whiteSpace=wrap;fillColor=#FFE599;" vertex="1" parent="1">
          <mxGeometry x="1470" y="550" width="300" height="240" as="geometry" />
        </mxCell>
        <mxCell id="1UL17R5PPc6tgj92Qz5R-17" value="&lt;p style=&quot;margin:0px;margin-top:4px;text-align:center;&quot;&gt;&lt;b&gt;Quiz&lt;/b&gt;&lt;/p&gt;&lt;hr size=&quot;1&quot;&gt;&lt;p style=&quot;margin:0px;margin-left:4px;&quot;&gt;+ Questions *Quiz&lt;/p&gt;&lt;p style=&quot;margin:0px;margin-left:4px;&quot;&gt;+ int total_Q&lt;/p&gt;&lt;p style=&quot;margin:0px;margin-left:4px;&quot;&gt;+ string *Key&lt;/p&gt;&lt;p style=&quot;margin:0px;margin-left:4px;&quot;&gt;+ string *Answer&lt;/p&gt;&lt;p style=&quot;margin:0px;margin-left:4px;&quot;&gt;+ string **marks&lt;/p&gt;&lt;p style=&quot;margin:0px;margin-left:4px;&quot;&gt;+ int analytics&lt;/p&gt;&lt;p style=&quot;margin:0px;margin-left:4px;&quot;&gt;+ int *student_attendence&lt;/p&gt;&lt;hr size=&quot;1&quot;&gt;&lt;p style=&quot;margin:0px;margin-left:4px;&quot;&gt;+ Quiz()&lt;/p&gt;&lt;p style=&quot;margin:0px;margin-left:4px;&quot;&gt;+&amp;nbsp; void generate_Quiz()&lt;/p&gt;&lt;p style=&quot;margin:0px;margin-left:4px;&quot;&gt;+ void view_Quiz()&lt;/p&gt;&lt;p style=&quot;margin:0px;margin-left:4px;&quot;&gt;+ void display_Quiz_Qs()&lt;/p&gt;&lt;p style=&quot;margin:0px;margin-left:4px;&quot;&gt;+ void display_Quiz_Key()&lt;/p&gt;&lt;p style=&quot;margin:0px;margin-left:4px;&quot;&gt;+ void attempt_Quiz()&lt;/p&gt;&lt;p style=&quot;margin:0px;margin-left:4px;&quot;&gt;+ void mark_Quiz()&lt;/p&gt;&lt;p style=&quot;margin:0px;margin-left:4px;&quot;&gt;+ void Generate_Analytics()&lt;/p&gt;&lt;p style=&quot;margin:0px;margin-left:4px;&quot;&gt;+void mark_attendance()&lt;/p&gt;" style="verticalAlign=top;align=left;overflow=fill;fontSize=12;fontFamily=Helvetica;html=1;whiteSpace=wrap;fillColor=#FFE599;" vertex="1" parent="1">
          <mxGeometry x="870" y="550" width="270" height="290" as="geometry" />
        </mxCell>
        <mxCell id="1UL17R5PPc6tgj92Qz5R-18" value="&lt;p style=&quot;margin:0px;margin-top:4px;text-align:center;&quot;&gt;&lt;b&gt;Teacher&lt;/b&gt;&lt;/p&gt;&lt;hr size=&quot;1&quot;&gt;&lt;p style=&quot;margin:0px;margin-left:4px;&quot;&gt;+ string name&lt;/p&gt;&lt;p style=&quot;margin:0px;margin-left:4px;&quot;&gt;+ Password password&lt;/p&gt;&lt;p style=&quot;margin:0px;margin-left:4px;&quot;&gt;+ Courses *courses&lt;/p&gt;&lt;p style=&quot;margin:0px;margin-left:4px;&quot;&gt;+ int total_C&lt;/p&gt;&lt;p style=&quot;margin:0px;margin-left:4px;&quot;&gt;+ Quiz Q&lt;/p&gt;&lt;p style=&quot;margin:0px;margin-left:4px;&quot;&gt;+ int *topic_chosen&lt;/p&gt;&lt;hr size=&quot;1&quot;&gt;&lt;p style=&quot;margin:0px;margin-left:4px;&quot;&gt;+ Teacher()&lt;/p&gt;&lt;p style=&quot;margin:0px;margin-left:4px;&quot;&gt;+ void Generate_Quiz()&lt;/p&gt;&lt;p style=&quot;margin:0px;margin-left:4px;&quot;&gt;+ void view_Quiz()&lt;/p&gt;&lt;p style=&quot;margin:0px;margin-left:4px;&quot;&gt;+ void update_Quiz()&lt;/p&gt;&lt;p style=&quot;margin:0px;margin-left:4px;&quot;&gt;+ void set_Timer()&lt;/p&gt;&lt;p style=&quot;margin:0px;margin-left:4px;&quot;&gt;+ void set_Date()&lt;/p&gt;&lt;p style=&quot;margin:0px;margin-left:4px;&quot;&gt;+ void view_analytics()&lt;/p&gt;&lt;p style=&quot;margin:0px;margin-left:4px;&quot;&gt;+ void view_markSheet()&lt;/p&gt;&lt;p style=&quot;margin:0px;margin-left:4px;&quot;&gt;+ void view_attendance()&lt;/p&gt;&lt;p style=&quot;margin:0px;margin-left:4px;&quot;&gt;+ void choose_topics()&lt;/p&gt;&lt;p style=&quot;margin:0px;margin-left:4px;&quot;&gt;+ void set_Password()&lt;/p&gt;&lt;p style=&quot;margin:0px;margin-left:4px;&quot;&gt;+ void view_Password()&lt;/p&gt;&lt;p style=&quot;margin:0px;margin-left:4px;&quot;&gt;&lt;br&gt;&lt;/p&gt;" style="verticalAlign=top;align=left;overflow=fill;fontSize=12;fontFamily=Helvetica;html=1;whiteSpace=wrap;fillColor=#FFE599;" vertex="1" parent="1">
          <mxGeometry x="1410" y="40" width="270" height="370" as="geometry" />
        </mxCell>
        <mxCell id="1UL17R5PPc6tgj92Qz5R-26" value="" style="endArrow=diamondThin;endFill=0;endSize=24;html=1;rounded=0;exitX=0.5;exitY=0;exitDx=0;exitDy=0;entryX=0;entryY=0.5;entryDx=0;entryDy=0;" edge="1" parent="1" source="1UL17R5PPc6tgj92Qz5R-9" target="1UL17R5PPc6tgj92Qz5R-10">
          <mxGeometry width="160" relative="1" as="geometry">
            <mxPoint x="620" y="-80" as="sourcePoint" />
            <mxPoint x="780" y="-50" as="targetPoint" />
            <Array as="points">
              <mxPoint x="570" y="-110" />
            </Array>
          </mxGeometry>
        </mxCell>
        <mxCell id="1UL17R5PPc6tgj92Qz5R-27" value="" style="endArrow=diamondThin;endFill=0;endSize=24;html=1;rounded=0;exitX=0.5;exitY=0;exitDx=0;exitDy=0;entryX=1;entryY=0.5;entryDx=0;entryDy=0;" edge="1" parent="1" source="1UL17R5PPc6tgj92Qz5R-18" target="1UL17R5PPc6tgj92Qz5R-10">
          <mxGeometry width="160" relative="1" as="geometry">
            <mxPoint x="1370" y="-105" as="sourcePoint" />
            <mxPoint x="1240" y="-70" as="targetPoint" />
            <Array as="points">
              <mxPoint x="1545" y="-110" />
            </Array>
          </mxGeometry>
        </mxCell>
        <mxCell id="1UL17R5PPc6tgj92Qz5R-28" value="" style="endArrow=diamondThin;endFill=1;endSize=24;html=1;rounded=0;entryX=0.5;entryY=0;entryDx=0;entryDy=0;exitX=0;exitY=0.25;exitDx=0;exitDy=0;fillColor=#33FFFF;" edge="1" parent="1" source="1UL17R5PPc6tgj92Qz5R-9" target="1UL17R5PPc6tgj92Qz5R-6">
          <mxGeometry width="160" relative="1" as="geometry">
            <mxPoint x="-50" y="170" as="sourcePoint" />
            <mxPoint x="250" y="180" as="targetPoint" />
            <Array as="points">
              <mxPoint x="55" y="185" />
            </Array>
          </mxGeometry>
        </mxCell>
        <mxCell id="1UL17R5PPc6tgj92Qz5R-29" value="" style="endArrow=diamondThin;endFill=1;endSize=24;html=1;rounded=0;entryX=1;entryY=0.5;entryDx=0;entryDy=0;exitX=0;exitY=0.75;exitDx=0;exitDy=0;" edge="1" parent="1" source="1UL17R5PPc6tgj92Qz5R-15" target="1UL17R5PPc6tgj92Qz5R-11">
          <mxGeometry width="160" relative="1" as="geometry">
            <mxPoint x="1520" y="1030" as="sourcePoint" />
            <mxPoint x="1530" y="1090" as="targetPoint" />
          </mxGeometry>
        </mxCell>
        <mxCell id="1UL17R5PPc6tgj92Qz5R-34" value="" style="endArrow=diamondThin;endFill=1;endSize=24;html=1;rounded=0;entryX=0.5;entryY=0;entryDx=0;entryDy=0;" edge="1" parent="1" target="1UL17R5PPc6tgj92Qz5R-15">
          <mxGeometry width="160" relative="1" as="geometry">
            <mxPoint x="1601" y="790" as="sourcePoint" />
            <mxPoint x="1620" y="1010" as="targetPoint" />
            <Array as="points">
              <mxPoint x="1601" y="880" />
              <mxPoint x="1853" y="880" />
            </Array>
          </mxGeometry>
        </mxCell>
        <mxCell id="1UL17R5PPc6tgj92Qz5R-35" value="" style="endArrow=diamondThin;endFill=1;endSize=24;html=1;rounded=0;exitX=0.5;exitY=1;exitDx=0;exitDy=0;entryX=0.5;entryY=0;entryDx=0;entryDy=0;" edge="1" parent="1" source="1UL17R5PPc6tgj92Qz5R-18" target="1UL17R5PPc6tgj92Qz5R-16">
          <mxGeometry width="160" relative="1" as="geometry">
            <mxPoint x="1330" y="430" as="sourcePoint" />
            <mxPoint x="1470" y="470" as="targetPoint" />
            <Array as="points">
              <mxPoint x="1545" y="480" />
              <mxPoint x="1620" y="480" />
            </Array>
          </mxGeometry>
        </mxCell>
        <mxCell id="1UL17R5PPc6tgj92Qz5R-40" value="" style="endArrow=diamondThin;endFill=1;endSize=24;html=1;rounded=0;entryX=0.5;entryY=0;entryDx=0;entryDy=0;exitX=1;exitY=0.75;exitDx=0;exitDy=0;" edge="1" parent="1" source="1UL17R5PPc6tgj92Qz5R-17" target="1UL17R5PPc6tgj92Qz5R-11">
          <mxGeometry width="160" relative="1" as="geometry">
            <mxPoint x="1090" y="950" as="sourcePoint" />
            <mxPoint x="1250" y="950" as="targetPoint" />
            <Array as="points">
              <mxPoint x="1305" y="770" />
            </Array>
          </mxGeometry>
        </mxCell>
        <mxCell id="1UL17R5PPc6tgj92Qz5R-43" value="" style="endArrow=open;endFill=1;endSize=12;html=1;rounded=0;" edge="1" parent="1">
          <mxGeometry width="160" relative="1" as="geometry">
            <mxPoint x="680" y="259.23" as="sourcePoint" />
            <mxPoint x="940" y="259" as="targetPoint" />
          </mxGeometry>
        </mxCell>
        <mxCell id="1UL17R5PPc6tgj92Qz5R-44" value="" style="endArrow=open;endFill=1;endSize=12;html=1;rounded=0;entryX=1;entryY=0.5;entryDx=0;entryDy=0;" edge="1" parent="1" target="1UL17R5PPc6tgj92Qz5R-5">
          <mxGeometry width="160" relative="1" as="geometry">
            <mxPoint x="1410" y="240" as="sourcePoint" />
            <mxPoint x="1330" y="240" as="targetPoint" />
          </mxGeometry>
        </mxCell>
        <mxCell id="1UL17R5PPc6tgj92Qz5R-46" value="" style="endArrow=diamondThin;endFill=1;endSize=24;html=1;rounded=0;entryX=0;entryY=0.75;entryDx=0;entryDy=0;exitX=0.5;exitY=0;exitDx=0;exitDy=0;" edge="1" parent="1" source="1UL17R5PPc6tgj92Qz5R-17" target="1UL17R5PPc6tgj92Qz5R-18">
          <mxGeometry width="160" relative="1" as="geometry">
            <mxPoint x="1087.5" y="440" as="sourcePoint" />
            <mxPoint x="1247.5" y="440" as="targetPoint" />
            <Array as="points">
              <mxPoint x="1005" y="440" />
              <mxPoint x="1280" y="440" />
              <mxPoint x="1280" y="318" />
            </Array>
          </mxGeometry>
        </mxCell>
        <mxCell id="1UL17R5PPc6tgj92Qz5R-49" value="" style="endArrow=diamondThin;endFill=1;endSize=24;html=1;rounded=0;entryX=0.5;entryY=1;entryDx=0;entryDy=0;exitX=0;exitY=0.5;exitDx=0;exitDy=0;" edge="1" parent="1" source="1UL17R5PPc6tgj92Qz5R-17" target="1UL17R5PPc6tgj92Qz5R-9">
          <mxGeometry width="160" relative="1" as="geometry">
            <mxPoint x="410" y="570" as="sourcePoint" />
            <mxPoint x="570" y="570" as="targetPoint" />
            <Array as="points">
              <mxPoint x="570" y="695" />
            </Array>
          </mxGeometry>
        </mxCell>
        <mxCell id="1UL17R5PPc6tgj92Qz5R-50" value="" style="endArrow=open;endFill=1;endSize=12;html=1;rounded=0;entryX=0.5;entryY=1;entryDx=0;entryDy=0;exitX=0.5;exitY=0;exitDx=0;exitDy=0;" edge="1" parent="1" source="1UL17R5PPc6tgj92Qz5R-14" target="1UL17R5PPc6tgj92Qz5R-11">
          <mxGeometry width="160" relative="1" as="geometry">
            <mxPoint x="1370" y="1290" as="sourcePoint" />
            <mxPoint x="1530" y="1290" as="targetPoint" />
            <Array as="points">
              <mxPoint x="1600" y="1280" />
              <mxPoint x="1305" y="1280" />
            </Array>
          </mxGeometry>
        </mxCell>
        <mxCell id="1UL17R5PPc6tgj92Qz5R-51" value="" style="endArrow=open;endFill=1;endSize=12;html=1;rounded=0;entryX=0.5;entryY=1;entryDx=0;entryDy=0;exitX=0.5;exitY=0;exitDx=0;exitDy=0;" edge="1" parent="1" source="1UL17R5PPc6tgj92Qz5R-12" target="1UL17R5PPc6tgj92Qz5R-11">
          <mxGeometry width="160" relative="1" as="geometry">
            <mxPoint x="1000" y="1280" as="sourcePoint" />
            <mxPoint x="1275" y="1230" as="targetPoint" />
            <Array as="points">
              <mxPoint x="1080" y="1280" />
              <mxPoint x="1305" y="1280" />
            </Array>
          </mxGeometry>
        </mxCell>
        <mxCell id="1UL17R5PPc6tgj92Qz5R-52" value="" style="endArrow=open;endFill=1;endSize=12;html=1;rounded=0;entryX=0.5;entryY=1;entryDx=0;entryDy=0;exitX=0.5;exitY=0;exitDx=0;exitDy=0;" edge="1" parent="1" source="1UL17R5PPc6tgj92Qz5R-13" target="1UL17R5PPc6tgj92Qz5R-11">
          <mxGeometry width="160" relative="1" as="geometry">
            <mxPoint x="1140" y="1270" as="sourcePoint" />
            <mxPoint x="1300" y="1270" as="targetPoint" />
            <Array as="points">
              <mxPoint x="1305" y="1280" />
            </Array>
          </mxGeometry>
        </mxCell>
      </root>
    </mxGraphModel>
  </diagram>
</mxfile>
